<svg xmlns="http://www.w3.org/2000/svg" viewBox="0 12.649999618530273 141.75 35" data-asc="0.953" width="141.75" height="35"><defs/><g fill="#EB3D47"><g transform="translate(0, 0)"><path d="M40.40 37.65Q40.40 40.40 39.05 42.67Q37.70 44.95 35.45 46.30Q33.20 47.65 30.40 47.65L0 47.65L0 42.65L30.40 42.65Q32.50 42.65 33.95 41.17Q35.40 39.70 35.40 37.65Q35.40 35.60 33.95 34.13Q32.50 32.65 30.40 32.65L10 32.65Q7.25 32.65 4.98 31.30Q2.70 29.95 1.35 27.67Q0 25.40 0 22.65Q0 19.90 1.35 17.62Q2.70 15.35 4.98 14Q7.25 12.65 10 12.65L37.90 12.65L37.90 17.65L10 17.65Q7.95 17.65 6.48 19.12Q5 20.60 5 22.65Q5 24.70 6.48 26.17Q7.95 27.65 10 27.65L30.40 27.65Q33.20 27.65 35.45 29.00Q37.70 30.35 39.05 32.63Q40.40 34.90 40.40 37.65ZM65.25 47.65L60.25 47.65L60.25 17.65L42.55 17.65L42.55 12.65L82.95 12.65L82.95 17.65L65.25 17.65L65.25 47.65ZM92.65 47.65L87.65 47.65L87.65 12.65L92.65 12.65L92.65 47.65ZM141.75 47.65L135 47.65L117.15 29.65L106.05 37.65L106.05 47.65L101.05 47.65L101.05 12.65L106.05 12.65L106.05 32.15L133.50 12.65L140.80 12.65L120.95 26.90L141.75 47.65Z"/></g></g></svg>